<svg width="32" height="32" viewBox="0 0 32 32" fill="none" xmlns="http://www.w3.org/2000/svg">
<path d="M16 26.5128C15.5077 26.5128 15.0837 26.3697 14.7282 26.0834C14.3726 25.797 14.1641 25.4291 14.1026 24.9795H13.3333C12.9761 24.9795 12.6645 24.8466 12.3987 24.5808C12.1329 24.315 12 24.0034 12 23.6462V19.6308C10.6205 18.8667 9.5534 17.8248 8.79869 16.5051C8.044 15.1855 7.66666 13.7949 7.66666 12.3333C7.66666 10.0034 8.47307 8.03206 10.0859 6.41923C11.6987 4.80641 13.6701 4 16 4C18.3299 4 20.3013 4.80641 21.9141 6.41923C23.5269 8.03206 24.3333 10.0034 24.3333 12.3333C24.3333 13.8051 23.956 15.1983 23.2013 16.5128C22.4466 17.8274 21.3795 18.8667 20 19.6308V23.6462C20 24.0034 19.8671 24.315 19.6013 24.5808C19.3355 24.8466 19.0239 24.9795 18.6667 24.9795H17.8974C17.8359 25.4291 17.6273 25.797 17.2718 26.0834C16.9162 26.3697 16.4923 26.5128 16 26.5128ZM13.3333 23.6462H18.6667V22.3436H13.3333V23.6462ZM13.3333 21.318H18.6667V20H13.3333V21.318ZM13.0667 18.6667H15.4103V14.5026L12.6308 11.7231L13.4667 10.8872L16 13.4205L18.5333 10.8872L19.3692 11.7231L16.5897 14.5026V18.6667H18.9333C20.1333 18.0889 21.1111 17.2389 21.8667 16.1167C22.6222 14.9944 23 13.7333 23 12.3333C23 10.3778 22.3222 8.72222 20.9667 7.36667C19.6111 6.01111 17.9555 5.33333 16 5.33333C14.0444 5.33333 12.3889 6.01111 11.0333 7.36667C9.67777 8.72222 8.99999 10.3778 8.99999 12.3333C8.99999 13.7333 9.37777 14.9944 10.1333 16.1167C10.8889 17.2389 11.8667 18.0889 13.0667 18.6667Z" fill="url(#paint0_linear_8_19)"/>
<defs>
<linearGradient id="paint0_linear_8_19" x1="16" y1="4" x2="16" y2="26.5128" gradientUnits="userSpaceOnUse">
<stop stop-color="#FFB6C1"/>
<stop offset="1" stop-color="#FF8395"/>
</linearGradient>
</defs>
</svg>
