<svg width="32" height="32" viewBox="0 0 32 32" fill="none" xmlns="http://www.w3.org/2000/svg">
<rect x="0.5" y="0.5" width="31" height="31" stroke="url(#paint0_linear_8_14)"/>
<path d="M16 25.1282C15.6333 25.1282 15.3194 24.9977 15.0583 24.7366C14.7972 24.4754 14.6667 24.1615 14.6667 23.7949C14.6667 23.4282 14.7972 23.1143 15.0583 22.8532C15.3194 22.5921 15.6333 22.4615 16 22.4615C16.3667 22.4615 16.6806 22.5921 16.9417 22.8532C17.2028 23.1143 17.3333 23.4282 17.3333 23.7949C17.3333 24.1615 17.2028 24.4754 16.9417 24.7366C16.6806 24.9977 16.3667 25.1282 16 25.1282ZM15.0256 20.0513V5.53845H16.9744V20.0513H15.0256Z" fill="url(#paint1_linear_8_14)"/>
<defs>
<linearGradient id="paint0_linear_8_14" x1="16" y1="0" x2="16" y2="32" gradientUnits="userSpaceOnUse">
<stop stop-color="#FFB6C1"/>
<stop offset="1" stop-color="#FF8395"/>
</linearGradient>
<linearGradient id="paint1_linear_8_14" x1="16" y1="5.53845" x2="16" y2="25.1282" gradientUnits="userSpaceOnUse">
<stop stop-color="#FFB6C1"/>
<stop offset="1" stop-color="#FF8395"/>
</linearGradient>
</defs>
</svg>
