<svg width="34" height="34" viewBox="0 0 34 34" fill="none" xmlns="http://www.w3.org/2000/svg">
<path d="M10.2436 22.9936C9.93485 22.9936 9.67603 22.8892 9.46717 22.6803C9.25828 22.4714 9.15384 22.2126 9.15384 21.9039V20.4872H25.7997L26.6987 21.3862V8.5H28.1154C28.4242 8.5 28.683 8.60443 28.8919 8.8133C29.1007 9.02216 29.2052 9.28097 29.2052 9.58973V27.3526L24.8462 22.9936H10.2436ZM4.79486 22.0128V5.33973C4.79486 5.03097 4.89929 4.77216 5.10816 4.5633C5.31704 4.35443 5.57587 4.25 5.88463 4.25H22.7757C23.0844 4.25 23.3432 4.35443 23.5521 4.5633C23.761 4.77216 23.8654 5.03097 23.8654 5.33973V16.5641C23.8654 16.8729 23.761 17.1317 23.5521 17.3405C23.3432 17.5494 23.0844 17.6539 22.7757 17.6539H9.15384L4.79486 22.0128ZM22.4487 16.2372V5.66667H6.21156V18.1987L8.17308 16.2372H22.4487Z" fill="url(#paint0_linear_8_11)"/>
<defs>
<linearGradient id="paint0_linear_8_11" x1="17" y1="4.25" x2="17" y2="27.3526" gradientUnits="userSpaceOnUse">
<stop stop-color="#FFB6C1"/>
<stop offset="1" stop-color="#FF8395"/>
</linearGradient>
</defs>
</svg>
