<svg width="36" height="24" viewBox="0 0 36 24" fill="none" xmlns="http://www.w3.org/2000/svg">
<path d="M3 22.9846V20.9123C3 19.4385 3.4923 18.2154 4.4769 17.2431C5.46152 16.2708 6.72884 15.7846 8.27884 15.7846C8.50769 15.7846 8.75289 15.8023 9.01444 15.8377C9.27596 15.8731 9.55384 15.9308 9.84806 16.0108C9.61346 16.6662 9.44231 17.3385 9.33461 18.0277C9.22691 18.7169 9.17306 19.4077 9.17306 20.1V22.9846H3ZM12 22.9846V20.2846C12 19.3174 12.1755 18.4333 12.5264 17.6323C12.8774 16.8313 13.3952 16.1385 14.0798 15.5539C14.7644 14.9692 15.562 14.5308 16.4726 14.2385C17.3832 13.9462 18.3884 13.8 19.4884 13.8C20.6096 13.8 21.6255 13.9462 22.5361 14.2385C23.4466 14.5308 24.2442 14.9692 24.9288 15.5539C25.6135 16.1385 26.1298 16.8313 26.4779 17.6323C26.826 18.4333 27 19.3174 27 20.2846V22.9846H12ZM29.8269 22.9846V20.1138C29.8269 19.3483 29.7745 18.6269 29.6697 17.9497C29.5649 17.2725 29.4077 16.6262 29.1981 16.0108C29.5115 15.9308 29.7928 15.8731 30.0418 15.8377C30.2909 15.8023 30.5269 15.7846 30.75 15.7846C32.3 15.7846 33.5625 16.2685 34.5375 17.2362C35.5125 18.2038 36 19.4292 36 20.9123V22.9846H29.8269ZM13.5433 20.5847H25.4654V20.0769C25.4077 18.9385 24.8245 18.0077 23.7159 17.2846C22.6072 16.5616 21.2019 16.2 19.5 16.2C17.7981 16.2 16.3928 16.5616 15.2841 17.2846C14.1755 18.0077 13.5952 18.9385 13.5433 20.0769V20.5847ZM8.27119 13.5231C7.68206 13.5231 7.18029 13.1886 6.76586 12.5198C6.35144 11.851 6.14422 11.0469 6.14422 10.1077C6.14422 9.17845 6.35324 8.38461 6.77126 7.72617C7.18929 7.06769 7.69181 6.73845 8.27884 6.73845C8.85961 6.73845 9.36057 7.06769 9.78172 7.72617C10.2029 8.38461 10.4134 9.18305 10.4134 10.1215C10.4134 11.0323 10.2081 11.8269 9.79755 12.5054C9.38695 13.1839 8.87816 13.5231 8.27119 13.5231ZM30.75 13.5231C30.175 13.5231 29.6755 13.1839 29.2514 12.5054C28.8274 11.8269 28.6154 11.0323 28.6154 10.1215C28.6154 9.18305 28.8274 8.38461 29.2514 7.72617C29.6755 7.06769 30.1769 6.73845 30.7556 6.73845C31.3519 6.73845 31.8558 7.06769 32.2673 7.72617C32.6788 8.38461 32.8846 9.17845 32.8846 10.1077C32.8846 11.0469 32.68 11.851 32.2709 12.5198C31.8618 13.1886 31.3548 13.5231 30.75 13.5231ZM19.5102 12C18.5995 12 17.8221 11.4885 17.1779 10.4654C16.5336 9.44233 16.2115 8.20001 16.2115 6.73845C16.2115 5.24769 16.5312 3.99807 17.1706 2.98959C17.8101 1.98115 18.5865 1.47693 19.5 1.47693C20.4317 1.47693 21.2127 1.97959 21.843 2.98491C22.4733 3.99027 22.7885 5.23603 22.7885 6.72219C22.7885 8.17919 22.4743 9.42307 21.846 10.4538C21.2176 11.4846 20.439 12 19.5102 12ZM19.5144 9.60003C20.0067 9.60003 20.4255 9.31617 20.7707 8.74845C21.1159 8.18077 21.2884 7.50309 21.2884 6.71541C21.2884 5.92769 21.1171 5.25769 20.7743 4.70541C20.4315 4.15309 20.0067 3.87693 19.5 3.87693C19.0173 3.87693 18.5985 4.15117 18.2437 4.69965C17.8889 5.24809 17.7115 5.92769 17.7115 6.73845C17.7115 7.51077 17.8889 8.18077 18.2437 8.74845C18.5985 9.31617 19.0221 9.60003 19.5144 9.60003Z" fill="url(#paint0_linear_6_53)"/>
<defs>
<linearGradient id="paint0_linear_6_53" x1="19.5" y1="1.47693" x2="19.5" y2="22.9846" gradientUnits="userSpaceOnUse">
<stop stop-color="#FFB6C1"/>
<stop offset="1" stop-color="#FF8395"/>
</linearGradient>
</defs>
</svg>
