<svg width="27" height="24" viewBox="0 0 27 24" fill="none" xmlns="http://www.w3.org/2000/svg">
<g clip-path="url(#clip0_6_34)">
<path d="M-0.597908 23.8154V22.2154H27.5979V23.8154H-0.597908ZM4.68881 19.0154C3.93568 19.0154 3.30684 18.7688 2.80229 18.2754C2.29775 17.7821 2.04547 17.1672 2.04547 16.4308V6.58463C2.04547 5.84823 2.29775 5.23337 2.80229 4.74003C3.30684 4.2467 3.93568 4.00003 4.68881 4.00003H9.59791C9.59791 2.95387 9.98077 2.05643 10.7465 1.30771C11.5122 0.558992 12.4301 0.184631 13.5 0.184631C14.57 0.184631 15.4878 0.558992 16.2535 1.30771C17.0193 2.05643 17.4021 2.95387 17.4021 4.00003H22.3112C23.0644 4.00003 23.6932 4.2467 24.1977 4.74003C24.7023 5.23337 24.9546 5.84823 24.9546 6.58463V16.4308C24.9546 17.1672 24.7023 17.7821 24.1977 18.2754C23.6932 18.7688 23.0644 19.0154 22.3112 19.0154H4.68881ZM21.1783 17.4154H22.3112C22.6049 17.4154 22.8462 17.3231 23.035 17.1385C23.2238 16.9539 23.3182 16.718 23.3182 16.4308V6.58463C23.3182 6.29746 23.2238 6.06156 23.035 5.87695C22.8462 5.69234 22.6049 5.60003 22.3112 5.60003H21.1783V17.4154ZM11.0455 4.00003H15.9546C15.9546 3.3067 15.7227 2.73337 15.2591 2.28003C14.7955 1.8267 14.2091 1.60003 13.5 1.60003C12.7909 1.60003 12.2046 1.8267 11.7409 2.28003C11.2773 2.73337 11.0455 3.3067 11.0455 4.00003ZM5.82171 17.4154V5.60003H4.68881C4.39511 5.60003 4.15386 5.69234 3.96505 5.87695C3.77624 6.06156 3.68184 6.29746 3.68184 6.58463V16.4308C3.68184 16.718 3.77624 16.9539 3.96505 17.1385C4.15386 17.3231 4.39511 17.4154 4.68881 17.4154H5.82171ZM7.26924 5.60003V17.4154H19.7308V5.60003H7.26924Z" fill="url(#paint0_linear_6_34)"/>
</g>
<defs>
<linearGradient id="paint0_linear_6_34" x1="13.5" y1="0.184631" x2="13.5" y2="23.8154" gradientUnits="userSpaceOnUse">
<stop stop-color="#FFB6C1"/>
<stop offset="1" stop-color="#FF8395"/>
</linearGradient>
<clipPath id="clip0_6_34">
<rect width="27" height="24" fill="white"/>
</clipPath>
</defs>
</svg>
