<svg width="60" height="58" viewBox="0 0 60 58" fill="none" xmlns="http://www.w3.org/2000/svg">
<g filter="url(#filter0_d_5_22)">
<path d="M21.8947 45.0806C19.3378 45.0806 17.254 44.6623 15.6434 43.8259C14.0328 43.0174 12.8449 41.916 12.0799 40.522C11.3148 39.1 10.9323 37.5108 10.9323 35.7543C10.9323 33.6632 11.3349 31.7533 12.1403 30.0246C12.9456 28.2681 14.0227 26.7068 15.3716 25.3406C16.7407 23.9465 18.2607 22.7615 19.9317 21.7857C21.6028 20.782 23.304 20.0013 25.0354 19.4437C24.5321 19.137 24.0288 18.8442 23.5255 18.5654C23.0222 18.2587 22.539 17.966 22.0759 17.6871C21.19 17.1574 20.1834 16.6416 19.0559 16.1397C17.9486 15.6379 16.8111 15.2196 15.6434 14.8851C14.4757 14.5505 13.3684 14.3832 12.3215 14.3832C11.5161 14.3832 10.741 14.5644 9.9961 14.9269C9.27132 15.2893 8.66733 15.7912 8.18413 16.4325C7.72107 17.0738 7.48955 17.8266 7.48955 18.6909C7.48955 19.5273 7.73114 20.3777 8.21433 21.242C8.41566 21.5766 8.70759 22.0088 9.09012 22.5385C9.49278 23.0404 9.91557 23.5143 10.3585 23.9604C10.8216 24.4066 11.2141 24.7272 11.5363 24.9224C11.7376 25.0339 11.8383 25.1593 11.8383 25.2988C11.8383 25.4103 11.7477 25.4242 11.5665 25.3406C10.8216 25.1175 10.0766 24.6854 9.33171 24.0441C8.58679 23.3749 7.96267 22.5524 7.45935 21.5766C6.97615 20.5729 6.73456 19.4994 6.73456 18.3563C6.73456 18.0496 6.75469 17.7429 6.79496 17.4362C6.83522 17.1295 6.89562 16.8228 6.97615 16.5161C7.31841 15.2057 7.91234 14.2856 8.75792 13.7559C9.60351 13.1982 10.58 12.9194 11.6873 12.9194C12.855 12.9194 14.1032 13.1425 15.432 13.5886C16.7608 14.0347 18.0594 14.5923 19.3277 15.2615C20.6163 15.9027 21.7638 16.5579 22.7705 17.2271C23.2134 17.5059 23.7067 17.8126 24.2503 18.1472C24.814 18.4818 25.4079 18.8303 26.032 19.1927C27.844 18.7188 29.5251 18.4818 31.0753 18.4818C31.2767 18.4818 31.478 18.4818 31.6793 18.4818C31.8807 18.4818 32.0719 18.4957 32.2531 18.5236C33.9846 18.6909 35.5046 19.0952 36.8133 19.7364C38.1219 20.3498 38.9574 21.1723 39.3198 22.2039C39.3802 22.3712 39.4104 22.5524 39.4104 22.7476C39.4104 23.2216 39.2292 23.7095 38.8668 24.2114C38.5246 24.6854 37.9407 24.9224 37.1152 24.9224C36.8334 24.9224 36.4911 24.8805 36.0885 24.7969C34.7597 24.4623 33.2497 23.8768 31.5585 23.0404C29.8674 22.176 28.1863 21.2699 26.5152 20.3219C24.8442 20.768 23.1832 21.4372 21.5323 22.3294C19.9015 23.2216 18.4117 24.3229 17.0628 25.6333C15.734 26.9159 14.667 28.3936 13.8616 30.0665C13.0765 31.7393 12.6839 33.5795 12.6839 35.587C12.6839 37.2599 13.1469 38.7097 14.073 39.9365C14.9992 41.1632 16.2675 42.0973 17.8782 42.7385C19.4888 43.3798 21.3108 43.6865 23.3443 43.6586C24.9549 43.575 26.6763 43.3101 28.5084 42.864C30.3405 42.4458 32.1927 41.8184 34.0651 40.982C35.9375 40.1734 37.7394 39.1279 39.4708 37.8454C41.2224 36.5349 42.8129 34.9457 44.2423 33.0776C44.2826 33.0219 44.3128 32.994 44.3329 32.994C44.3732 32.994 44.3933 33.0358 44.3933 33.1195C44.3933 33.2031 44.3732 33.2868 44.3329 33.3704C43.4068 34.8481 42.4404 36.1167 41.4338 37.1762C40.4271 38.2078 39.2292 39.1837 37.84 40.1037C36.2093 41.1632 34.5382 42.0415 32.8269 42.7385C31.1156 43.4635 29.4345 44.0071 27.7836 44.3696C26.1327 44.7599 24.5825 44.983 23.1329 45.0387C22.9316 45.0666 22.7202 45.0806 22.4987 45.0806C22.2974 45.0806 22.096 45.0806 21.8947 45.0806ZM37.6286 24.1696C38.0313 24.1696 38.3031 24.0302 38.444 23.7513C38.6051 23.4725 38.6856 23.1937 38.6856 22.9149C38.6856 22.3573 38.4541 21.8693 37.991 21.4511C37.5481 21.0329 36.9642 20.6983 36.2395 20.4474C35.5147 20.1686 34.7295 19.9595 33.8839 19.8201C33.0584 19.6807 32.2733 19.611 31.5283 19.611C30.9244 19.611 30.3002 19.6528 29.656 19.7364C29.0117 19.7922 28.3473 19.8898 27.6628 20.0292C28.7903 20.6147 29.9378 21.1863 31.1055 21.7439C32.2733 22.3015 33.3705 22.7894 34.3973 23.2077C35.4442 23.598 36.3401 23.8907 37.085 24.0859C37.1857 24.1138 37.2763 24.1417 37.3568 24.1696C37.4575 24.1696 37.5481 24.1696 37.6286 24.1696Z" fill="url(#paint0_linear_5_22)"/>
</g>
<g filter="url(#filter1_d_5_22)">
<path d="M49.237 34.7459C48.8939 34.7459 48.7223 34.5959 48.7223 34.296C48.7223 34.176 48.8015 33.9061 48.9599 33.4862C49.1446 33.0663 49.237 32.7163 49.237 32.4364C49.237 31.5366 48.7619 31.0867 47.8116 31.0867C47.3365 31.0867 46.7294 31.2266 45.9903 31.5066C45.2776 31.8065 44.8949 31.9565 44.8421 31.9565C44.7365 31.9565 44.6837 31.9265 44.6837 31.8665C44.6837 31.5866 45.1984 31.3266 46.2279 31.0867C47.0198 30.8867 47.6929 30.7867 48.2472 30.7867C49.6726 30.7867 50.3852 31.4366 50.3852 32.7363C50.3852 33.0962 50.2929 33.4862 50.1081 33.9061C49.8705 34.466 49.5802 34.7459 49.237 34.7459ZM43.1396 41.6445C41.3183 41.6445 40.4076 40.8647 40.4076 39.305C40.4076 37.7453 41.0807 36.1456 42.4269 34.506C43.9842 32.6463 45.7132 31.7165 47.6137 31.7165C47.904 31.7165 48.0492 31.7565 48.0492 31.8365C48.0492 31.8965 47.7852 32.0465 47.2573 32.2864C45.9639 32.8863 44.8157 33.7961 43.8127 35.0159C42.7304 36.3156 42.1893 37.4854 42.1893 38.5252C42.1893 40.1448 42.9944 40.9547 44.6045 40.9547C45.6076 40.9547 46.7162 40.6547 47.9304 40.0549C48.4583 39.7949 48.9467 39.525 49.3954 39.245C49.8705 38.9451 50.2929 38.6251 50.6624 38.2852C50.7944 38.1652 50.9528 38.0153 51.1375 37.8353C51.3223 37.6553 51.5203 37.4354 51.7314 37.1754C51.969 36.8755 52.1538 36.7255 52.2858 36.7255C52.2858 36.7255 52.3121 36.7455 52.3649 36.7855C52.3649 36.8455 52.2462 37.0155 52.0086 37.2954C51.5599 37.8153 51.0187 38.3252 50.3852 38.8251C49.7517 39.305 49.0127 39.7649 48.168 40.2048C46.3203 41.1646 44.6441 41.6445 43.1396 41.6445Z" fill="url(#paint1_linear_5_22)"/>
</g>
<g filter="url(#filter2_i_5_22)">
<path fill-rule="evenodd" clip-rule="evenodd" d="M29 55.5948C44.2572 55.5948 57.7938 44.2572 57.7938 29C57.7938 13.7428 44.807 0.755924 29.5498 0.755924C14.2926 0.755924 0.687204 13.7428 0.687204 29C0.687204 44.2572 13.7428 55.5948 29 55.5948ZM29 58C45.0163 58 59.0995 45.4973 59.0995 29.481C59.0995 13.4648 45.0163 0 29 0C12.9837 0 0 12.9837 0 29C0 45.0163 12.9837 58 29 58Z" fill="url(#paint2_linear_5_22)"/>
</g>
<defs>
<filter id="filter0_d_5_22" x="5.23456" y="12.4194" width="40.6588" height="35.1611" filterUnits="userSpaceOnUse" color-interpolation-filters="sRGB">
<feFlood flood-opacity="0" result="BackgroundImageFix"/>
<feColorMatrix in="SourceAlpha" type="matrix" values="0 0 0 0 0 0 0 0 0 0 0 0 0 0 0 0 0 0 127 0" result="hardAlpha"/>
<feOffset dy="1"/>
<feGaussianBlur stdDeviation="0.75"/>
<feComposite in2="hardAlpha" operator="out"/>
<feColorMatrix type="matrix" values="0 0 0 0 0 0 0 0 0 0 0 0 0 0 0 0 0 0 0.25 0"/>
<feBlend mode="normal" in2="BackgroundImageFix" result="effect1_dropShadow_5_22"/>
<feBlend mode="normal" in="SourceGraphic" in2="effect1_dropShadow_5_22" result="shape"/>
</filter>
<filter id="filter1_d_5_22" x="38.9076" y="30.2867" width="14.9573" height="13.8578" filterUnits="userSpaceOnUse" color-interpolation-filters="sRGB">
<feFlood flood-opacity="0" result="BackgroundImageFix"/>
<feColorMatrix in="SourceAlpha" type="matrix" values="0 0 0 0 0 0 0 0 0 0 0 0 0 0 0 0 0 0 127 0" result="hardAlpha"/>
<feOffset dy="1"/>
<feGaussianBlur stdDeviation="0.75"/>
<feComposite in2="hardAlpha" operator="out"/>
<feColorMatrix type="matrix" values="0 0 0 0 0 0 0 0 0 0 0 0 0 0 0 0 0 0 0.25 0"/>
<feBlend mode="normal" in2="BackgroundImageFix" result="effect1_dropShadow_5_22"/>
<feBlend mode="normal" in="SourceGraphic" in2="effect1_dropShadow_5_22" result="shape"/>
</filter>
<filter id="filter2_i_5_22" x="0" y="0" width="59.0995" height="62" filterUnits="userSpaceOnUse" color-interpolation-filters="sRGB">
<feFlood flood-opacity="0" result="BackgroundImageFix"/>
<feBlend mode="normal" in="SourceGraphic" in2="BackgroundImageFix" result="shape"/>
<feColorMatrix in="SourceAlpha" type="matrix" values="0 0 0 0 0 0 0 0 0 0 0 0 0 0 0 0 0 0 127 0" result="hardAlpha"/>
<feOffset dy="4"/>
<feGaussianBlur stdDeviation="2"/>
<feComposite in2="hardAlpha" operator="arithmetic" k2="-1" k3="1"/>
<feColorMatrix type="matrix" values="0 0 0 0 0 0 0 0 0 0 0 0 0 0 0 0 0 0 0.25 0"/>
<feBlend mode="normal" in2="shape" result="effect1_innerShadow_5_22"/>
</filter>
<linearGradient id="paint0_linear_5_22" x1="25.5639" y1="12.9194" x2="25.5639" y2="45.0806" gradientUnits="userSpaceOnUse">
<stop stop-color="#FFB6C1"/>
<stop offset="1" stop-color="#FF8395"/>
</linearGradient>
<linearGradient id="paint1_linear_5_22" x1="46.3863" y1="30.7867" x2="46.3863" y2="41.6445" gradientUnits="userSpaceOnUse">
<stop stop-color="#FFB6C1"/>
<stop offset="1" stop-color="#FF8395"/>
</linearGradient>
<linearGradient id="paint2_linear_5_22" x1="29.5498" y1="0" x2="29.5498" y2="58" gradientUnits="userSpaceOnUse">
<stop stop-color="#FFB6C1"/>
<stop offset="1" stop-color="#FF8395"/>
</linearGradient>
</defs>
</svg>
